<?xml version="1.0" encoding="UTF-8"?>
<svg width="293px" height="25px" viewBox="0 0 293 25" version="1.1" xmlns="http://www.w3.org/2000/svg" xmlns:xlink="http://www.w3.org/1999/xlink">
    <title>47B1A8C2-F0B7-4A25-B12D-A2EF54B97A99@3x</title>
    <g id="Page-1" stroke="none" stroke-width="1" fill="none" fill-rule="evenodd">
        <g id="1.-Landing-Page" transform="translate(-73.000000, -284.000000)" fill="#FFFFFF" fill-rule="nonzero">
            <g id="Logo" transform="translate(73.000000, 284.000000)">
                <path d="M5.50736963,2.00662416 C5.29307203,2.57919028 5.18548156,3.4679892 5.18548156,4.67213979 L5.18548156,20.1340686 C5.18548156,21.3382193 5.29307203,22.2296607 5.50736963,22.808393 C5.72254948,23.3871252 6.091177,23.9068391 6.61413443,24.364892 L0,24.364892 C0.510611208,23.9068391 0.876593292,23.3871252 1.09706444,22.808393 C1.31841783,22.2296607 1.42865286,21.3382193 1.42865286,20.1340686 L1.42865286,4.67213979 C1.42865286,3.4679892 1.31841783,2.57919028 1.09706444,2.00662416 C0.876593292,1.43405804 0.510611208,0.923152815 0,0.47567031 L6.61413443,0.47567031 C6.091177,0.923152815 5.72254948,1.43405804 5.50736963,2.00662416 L5.50736963,2.00662416 Z M14.8280089,23.63465 C14.0008007,23.1466475 13.0377821,22.111624 11.9354264,20.5295796 L5.77722588,11.8256933 L11.3322172,4.3629541 C11.722011,3.83531233 12.0095056,3.39399602 12.1929366,3.03900496 C12.3772509,2.68401401 12.4698486,2.38451786 12.4698486,2.14404006 C12.4698486,1.87977872 12.394007,1.61111312 12.2449684,1.33628132 C12.0968121,1.06144952 11.8719308,0.774285655 11.5738535,0.47567031 L17.5671426,0.47567031 L9.85153359,11.1562313 L16.8783904,21.0448892 C17.1526568,21.4456856 17.5433318,21.9178324 18.0530609,22.4551637 C18.5627901,22.9951376 19.2118565,23.6320073 20.0011433,24.364892 L17.9948566,24.364892 C16.70995,24.364892 15.6534526,24.1208907 14.8280089,23.63465 L14.8280089,23.63465 Z M26.110841,22.808393 C26.3251386,23.3871252 26.6937661,23.9068391 27.2167235,24.364892 L20.6025891,24.364892 C21.1246643,23.9068391 21.4932929,23.3871252 21.7093539,22.808393 C21.9236526,22.2296607 22.0312419,21.3382193 22.0312419,20.1340686 L22.0312419,4.67213979 C22.0312419,3.4679892 21.9236526,2.57919028 21.7093539,2.00662416 C21.4932929,1.43405804 21.1246643,0.923152815 20.6025891,0.47567031 L27.2167235,0.47567031 C26.6937661,0.923152815 26.3251386,1.43405804 26.110841,2.00662416 C25.8956611,2.57919028 25.7880706,3.4679892 25.7880706,4.67213979 L25.7880706,20.1340686 C25.7880706,21.3382193 25.8956611,22.2296607 26.110841,22.808393 L26.110841,22.808393 Z M49.1350848,24.364892 C48.2602549,24.364892 47.4074724,24.1358655 46.5785008,23.6769318 C45.7486481,23.217998 45.0457854,22.5864134 44.4707972,21.78394 L37.3892629,11.9446109 C39.4960854,11.4768684 41.0358566,10.8347133 42.0094567,10.018146 C42.9830578,9.20245943 43.4698584,8.14893772 43.4698584,6.85934248 C43.4698584,5.66047706 43.0500813,4.68447197 42.2105271,3.93220814 C41.3709729,3.17818259 40.272144,2.80116981 38.9140414,2.80116981 C38.6045004,2.80116981 38.2332273,2.82671508 37.8002219,2.87780562 C37.3654521,2.92889606 36.8751247,3.00641279 36.3265919,3.10859377 L36.3265919,20.1323069 C36.3265919,21.3364575 36.4341824,22.2278989 36.6493622,22.808393 C36.8645421,23.3871252 37.2331696,23.9068391 37.7552459,24.364892 L31.1411104,24.364892 C31.6517218,23.9068391 32.0177037,23.3871252 32.2381748,22.808393 C32.4595282,22.2278989 32.5697632,21.3364575 32.5697632,20.1323069 L32.5697632,4.68447197 C32.5697632,3.47679782 32.4595282,2.58623728 32.2381748,2.01190933 C32.0177037,1.43670058 31.6517218,0.92491454 31.1411104,0.47567031 L39.4608108,0.47567031 C41.815442,0.47567031 43.7159038,1.03766608 45.1630762,2.1607766 C46.6093675,3.28476793 47.3325131,4.74613297 47.3325131,6.54487161 C47.3325131,7.8520841 46.8968621,9.00338254 46.0255601,10.0014094 C45.1542581,10.9985553 43.802328,11.8750221 41.9688908,12.6316903 L48.1817676,20.9065924 C48.5521596,21.4016419 48.9966288,21.9222367 49.5160594,22.4727811 C50.0354889,23.0233255 50.6307611,23.5967725 51.3018749,24.1931222 L49.4296341,24.364892 L49.1350848,24.364892 Z M57.9900886,2.00662416 C57.775791,2.57919028 57.6682005,3.4679892 57.6682005,4.67213979 L57.6682005,20.1340686 C57.6682005,21.3382193 57.775791,22.2296607 57.9900886,22.808393 C58.2052685,23.3871252 58.573896,23.9068391 59.0959722,24.364892 L52.482719,24.364892 C52.9933304,23.9068391 53.35843,23.3871252 53.5797834,22.808393 C53.8002546,22.2296607 53.9113718,21.3382193 53.9113718,20.1340686 L53.9113718,4.67213979 C53.9113718,3.4679892 53.8002546,2.57919028 53.5797834,2.00662416 C53.35843,1.43405804 52.9933304,0.923152815 52.482719,0.47567031 L59.0959722,0.47567031 C58.573896,0.923152815 58.2052685,1.43405804 57.9900886,2.00662416 L57.9900886,2.00662416 Z M67.3107278,23.63465 C66.4835196,23.1466475 65.5196199,22.111624 64.4181453,20.5295796 L58.2599448,11.8256933 L63.8149362,4.3629541 C64.2056111,3.83531233 64.4913424,3.39399602 64.6756556,3.03900496 C64.8590876,2.68401401 64.9516864,2.38451786 64.9516864,2.14404006 C64.9516864,1.87977872 64.8758438,1.61111312 64.7276874,1.33628132 C64.5786488,1.06144952 64.3546497,0.774285655 64.0556914,0.47567031 L70.0498616,0.47567031 L62.3342526,11.1562313 L69.3602271,21.0448892 C69.6353758,21.4456856 70.0269319,21.9178324 70.5348977,22.4551637 C71.0446268,22.9951376 71.6936943,23.6320073 72.4829811,24.364892 L70.4775756,24.364892 C69.1917878,24.364892 68.1361715,24.1208907 67.3107278,23.63465 L67.3107278,23.63465 Z M72.9794821,24.364892 C73.4900935,23.9033157 73.8551931,23.3827209 74.0765465,22.7995842 C74.2970177,22.2182094 74.4081349,21.3214827 74.4081349,20.111166 L74.4081349,4.66685462 C74.4081349,3.46446564 74.2970177,2.57654764 74.0765465,2.00486244 C73.8551931,1.4314154 73.4900935,0.922271899 72.9794821,0.47567031 L79.5927353,0.47567031 C79.0715413,0.922271899 78.7029127,1.4314154 78.4868517,2.00486244 C78.272553,2.57654764 78.1649636,3.46446564 78.1649636,4.66685462 L78.1649636,21.2545365 C79.0918243,21.3928333 79.9216781,21.4958952 80.6536418,21.565484 C81.3864878,21.6350728 82.022327,21.6694267 82.5602772,21.6694267 C83.7622854,21.6694267 84.9060903,21.5055847 85.9943356,21.1770198 C87.0816997,20.848455 88.1408428,20.3419541 89.1708837,19.6610408 L87.5085315,24.364892 L72.9794821,24.364892 Z M99.9104754,3.78686443 L96.2506535,13.001656 L103.29603,13.001656 L99.9104754,3.78686443 Z M105.804992,24.2776858 C106.438186,23.6091047 106.754781,23.1211022 106.754781,22.8101547 C106.754781,22.4410697 106.615444,21.899334 106.339414,21.1849477 C106.305021,21.0713153 106.2768,20.9832282 106.253871,20.9259716 L104.206135,15.3800078 L95.3061556,15.3800078 L93.0132554,21.1162398 C92.9083106,21.3584793 92.8307056,21.6077658 92.7786738,21.8676227 C92.7257608,22.1265988 92.7010677,22.3952644 92.7010677,22.6709771 C92.7010677,22.9026461 92.7839651,23.156337 92.9524055,23.4311688 C93.1199637,23.7086431 93.3889387,24.0187097 93.7593297,24.364892 L88.0976301,24.364892 C88.5703202,24.0424932 88.9936252,23.5994152 89.3666629,23.0347768 C89.7396994,22.4701385 90.1224374,21.6976146 90.5148758,20.7189669 L97.2471833,3.68468345 C97.3847571,3.36404639 97.4879385,3.04957542 97.5558431,2.74038973 C97.62463,2.43208484 97.6599057,2.15725305 97.6599057,1.91677536 C97.6599057,1.64370529 97.5928822,1.39177623 97.461482,1.16274969 C97.3291984,0.933723269 97.1149008,0.704696844 96.8177058,0.47567031 L102.246587,0.47567031 L109.865189,20.4767274 C110.223234,21.387548 110.605972,22.1283606 111.015167,22.6974032 C111.423479,23.2682076 111.950847,23.8240372 112.596386,24.364892 L105.718568,24.364892 L105.804992,24.2776858 Z M135.023594,2.00662416 C134.809296,2.57919028 134.701706,3.4679892 134.701706,4.67213979 L134.701706,24.8925337 C133.862152,24.870512 133.065811,24.6018463 132.312681,24.0900603 C131.559552,23.5765125 130.613289,22.6022692 129.475658,21.1655685 L117.134564,5.61819524 L117.134564,20.1340686 C117.134564,21.3849054 117.236863,22.2895599 117.443224,22.8515557 C117.650466,23.4135513 118.005866,23.9182904 118.510305,24.364892 L113.060257,24.364892 C113.570868,23.9068391 113.93685,23.3871252 114.157321,22.808393 C114.378675,22.2296607 114.48891,21.3382193 114.48891,20.1340686 L114.48891,4.67213979 C114.48891,3.4679892 114.378675,2.57919028 114.157321,2.00662416 C113.93685,1.43405804 113.570868,0.923152815 113.060257,0.47567031 L117.925615,0.47567031 L132.108966,18.4137275 L132.108966,4.67213979 C132.108966,3.4679892 131.997848,2.57919028 131.777377,2.00662416 C131.556906,1.43405804 131.191805,0.923152815 130.680313,0.47567031 L136.130359,0.47567031 C135.607402,0.923152815 135.238774,1.43405804 135.023594,2.00662416 L135.023594,2.00662416 Z M155.434814,5.58207952 C153.708966,3.86878542 151.411656,3.01257888 148.546414,3.01257888 C147.959078,3.01257888 147.360278,3.05309886 146.750014,3.13325813 C146.138868,3.21341739 145.525077,3.33850112 144.902466,3.51115182 L144.902466,21.4844438 C145.777295,21.6236214 146.530426,21.7240408 147.163618,21.7865826 C147.797694,21.8491244 148.34358,21.8808358 148.804805,21.8808358 C151.476034,21.8808358 153.679863,20.98499 155.418058,19.1924175 C157.155371,17.3989641 158.02491,15.1280786 158.02491,12.3779994 C158.02491,9.56009303 157.160662,7.2944928 155.434814,5.58207952 L155.434814,5.58207952 Z M158.749819,20.4265177 C157.473731,21.8138896 155.918969,22.8172017 154.086412,23.436454 C152.252093,24.0557063 149.877177,24.364892 146.957257,24.364892 L139.770779,24.364892 C140.274335,23.9191713 140.629735,23.416194 140.836096,22.8550791 C141.042457,22.2948452 141.146519,21.3919524 141.146519,20.1455199 L141.146519,4.69592334 C141.146519,3.43892037 141.042457,2.5325041 140.836096,1.97227016 C140.629735,1.41291714 140.274335,0.914344086 139.770779,0.47567031 L148.096652,0.47567031 C150.338403,0.47567031 152.187715,0.693245474 153.648116,1.12927661 C155.107635,1.56618866 156.457801,2.27617068 157.698612,3.2618653 C159.089344,4.3629541 160.13526,5.65254924 160.836358,7.13153163 C161.536574,8.61051413 161.888446,10.2559811 161.888446,12.0679328 C161.888446,13.7081146 161.625645,15.2258554 161.103569,16.6255594 C160.579729,18.0243825 159.794852,19.2919558 158.749819,20.4265177 L158.749819,20.4265177 Z M182.770592,12.148973 C181.632962,13.0800536 180.802226,13.9767802 180.279268,14.8382721 C179.756311,15.7006448 179.495273,16.5956098 179.495273,17.5266904 C179.495273,18.8717804 179.949443,19.9966527 180.86043,20.8977838 C181.772299,21.7997957 182.909048,22.2499207 184.272442,22.2499207 C185.359806,22.2499207 186.351045,21.9979917 187.244393,21.4923716 C188.137742,20.9876326 189.003753,20.1930869 189.839779,19.1131391 L182.770592,12.148973 Z M185.739016,4.45984991 C185.739016,3.79391143 185.507963,3.24512876 185.047618,2.81350199 C184.588157,2.38275602 183.99553,2.16694269 183.271503,2.16694269 C182.615381,2.16694269 182.068613,2.38275602 181.63208,2.81350199 C181.194665,3.24512876 180.97684,3.78246006 180.97684,4.42549591 C180.97684,4.89676196 181.165563,5.41999926 181.545654,5.99432721 C181.924866,6.56953597 182.535129,7.24780662 183.374684,8.02825837 C184.168379,7.49973579 184.760125,6.94038266 185.151681,6.34843736 C185.543238,5.75561114 185.739016,5.1266693 185.739016,4.45984991 L185.739016,4.45984991 Z M195.269544,23.5307071 C194.097519,22.9748776 192.849653,22.0420352 191.528589,20.7339417 C190.403304,22.1204327 189.167783,23.1598605 187.825556,23.8539868 C186.481564,24.5463514 185.023808,24.8925337 183.451407,24.8925337 C181.199956,24.8925337 179.325069,24.2133822 177.826747,22.8524365 C176.328425,21.4914908 175.579705,19.7949333 175.579705,17.7627638 C175.579705,16.4766921 175.969498,15.2188084 176.749967,13.9899933 C177.530434,12.7620592 178.798585,11.41785 180.55618,9.95912763 C179.626674,8.93907901 178.934394,8.00447482 178.481988,7.15531518 C178.027817,6.30703635 177.802055,5.51689507 177.802055,4.78136778 C177.802055,3.42834992 178.355878,2.29378814 179.463525,1.37680141 C180.571172,0.458933767 181.957494,0 183.622493,0 C185.03439,0 186.233754,0.461576408 187.220582,1.38472922 C188.208294,2.30788204 188.702149,3.43011175 188.702149,4.74701389 C188.702149,5.63140834 188.434056,6.52196887 187.901397,7.42221906 C187.366094,8.32246924 186.565342,9.24297942 185.49738,10.1828688 L193.925552,18.2683838 C194.786271,19.0849512 195.953886,20.022198 197.424869,21.0845284 C198.895854,22.1468588 200.55556,23.2400197 202.406636,24.364892 L199.11456,24.364892 C197.722947,24.364892 196.441569,24.0874176 195.269544,23.5307071 L195.269544,23.5307071 Z M218.784116,21.565484 C219.517843,21.6350728 220.155446,21.6694267 220.69516,21.6694267 C221.912161,21.6694267 223.060375,21.5055847 224.140683,21.1770198 C225.219228,20.848455 226.281899,20.3419541 227.326932,19.6610408 L225.663698,24.364892 L211.134649,24.364892 C211.647023,23.9033157 212.012124,23.3827209 212.233476,22.7995842 C212.453948,22.2182094 212.565065,21.3214827 212.565065,20.111166 L212.565065,4.67390152 C212.565065,3.46975093 212.453948,2.580952 212.233476,2.00750497 C212.012124,1.43405804 211.647023,0.923152815 211.134649,0.47567031 L224.257974,0.47567031 L224.257974,4.22818085 C223.670638,3.76484271 223.026863,3.42834992 222.325764,3.21958348 C221.623785,3.01169797 220.813333,2.90687434 219.891763,2.90687434 C219.420837,2.90687434 218.890823,2.9447518 218.30437,3.01962578 C217.717917,3.09449987 217.056504,3.20813222 216.32013,3.35876111 L216.32013,10.0947817 L222.193482,10.0947817 L222.193482,13.5830309 C221.918334,13.254466 221.543533,13.0236779 221.070843,12.8880237 C220.598153,12.7514887 219.735669,12.6845425 218.480748,12.6845425 L216.32013,12.6845425 L216.32013,21.2545365 C217.228471,21.3928333 218.048624,21.4958952 218.784116,21.565484 L218.784116,21.565484 Z M229.686856,24.364892 C230.197466,23.9033157 230.562567,23.3827209 230.783038,22.7995842 C231.003509,22.2182094 231.114627,21.3214827 231.114627,20.111166 L231.114627,4.66685462 C231.114627,3.46446564 231.003509,2.57654764 230.783038,2.00486244 C230.562567,1.4314154 230.197466,0.922271899 229.686856,0.47567031 L236.300108,0.47567031 C235.777151,0.922271899 235.408523,1.4314154 235.194226,2.00486244 C234.979927,2.57654764 234.870573,3.46446564 234.870573,4.66685462 L234.870573,21.2545365 C235.798316,21.3928333 236.629052,21.4958952 237.361016,21.565484 C238.093862,21.6350728 238.728819,21.6694267 239.266769,21.6694267 C240.467896,21.6694267 241.612582,21.5055847 242.700827,21.1770198 C243.788191,20.848455 244.847334,20.3419541 245.877375,19.6610408 L244.215905,24.364892 L229.686856,24.364892 Z M247.925994,24.364892 C248.437487,23.9033157 248.802587,23.3827209 249.023058,22.7995842 C249.243529,22.2182094 249.354648,21.3214827 249.354648,20.111166 L249.354648,4.66685462 C249.354648,3.46446564 249.243529,2.57654764 249.023058,2.00486244 C248.802587,1.4314154 248.437487,0.922271899 247.925994,0.47567031 L254.54101,0.47567031 C254.018053,0.922271899 253.649425,1.4314154 253.434245,2.00486244 C253.219066,2.57654764 253.112357,3.46446564 253.112357,4.66685462 L253.112357,21.2545365 C254.039218,21.3928333 254.86819,21.4958952 255.601036,21.565484 C256.333882,21.6350728 256.968839,21.6694267 257.506789,21.6694267 C258.709679,21.6694267 259.853484,21.5055847 260.941729,21.1770198 C262.028211,20.848455 263.088237,20.3419541 264.118278,19.6610408 L262.456807,24.364892 L247.925994,24.364892 Z M271.780974,22.808393 C271.995271,23.3871252 272.364781,23.9068391 272.886857,24.364892 L266.272722,24.364892 C266.79568,23.9068391 267.164308,23.3871252 267.378605,22.808393 C267.593785,22.2296607 267.701376,21.3382193 267.701376,20.1340686 L267.701376,4.67213979 C267.701376,3.4679892 267.593785,2.57919028 267.378605,2.00662416 C267.164308,1.43405804 266.79568,0.923152815 266.272722,0.47567031 L272.886857,0.47567031 C272.364781,0.923152815 271.995271,1.43405804 271.780974,2.00662416 C271.565794,2.57919028 271.458204,3.4679892 271.458204,4.67213979 L271.458204,20.1340686 C271.458204,21.3382193 271.565794,22.2296607 271.780974,22.808393 L271.780974,22.808393 Z M290.176205,22.8594835 C288.295145,24.2864945 285.942278,25 283.118482,25 C282.211905,25 281.237423,24.9013425 280.192389,24.7075509 C279.148238,24.5119975 278.01237,24.2213101 276.784788,23.8310842 L275.648037,19.5016032 C277.035242,20.4300412 278.382762,21.1197632 279.691478,21.5725309 C280.998432,22.0261795 282.293921,22.2499207 283.578826,22.2499207 C285.217368,22.2499207 286.536668,21.899334 287.534079,21.1937564 C288.531491,20.4890595 289.031519,19.5755964 289.031519,18.4533667 C289.031519,18.1327296 288.979488,17.8120926 288.877189,17.4905747 C288.774009,17.1699376 288.62497,16.8660372 288.430074,16.579754 C287.994423,15.9270287 286.532259,14.9915437 284.042698,13.7750608 C283.411268,13.4790882 282.924468,13.2438956 282.580533,13.0721258 C280.252357,11.9014482 278.655264,10.8232621 277.789253,9.83756736 C276.923242,8.85187274 276.491119,7.68295695 276.491119,6.32905817 C276.491119,4.39114202 277.283052,2.85314116 278.866917,1.71153237 C280.450782,0.570804394 282.6211,0 285.376989,0 C286.168921,0 287.042869,0.0519713524 287.994423,0.155033249 C288.946859,0.259856979 289.980427,0.420175509 291.094247,0.637750564 L291.094247,4.65099889 C290.107419,3.90666287 289.115298,3.34907157 288.117005,2.98174833 C287.119593,2.615306 286.080733,2.43120393 285.002188,2.43120393 C283.636149,2.43120393 282.539085,2.72365318 281.707468,3.30855148 C280.87585,3.89256897 280.4596,4.65452244 280.4596,5.5944118 C280.4596,6.43212007 280.785016,7.17117081 281.438492,7.81244493 C282.091087,8.45548077 283.557661,9.31521087 285.836451,10.3925161 C285.961678,10.4497728 286.156575,10.5413833 286.422022,10.6673479 C288.349822,11.5490997 289.790822,12.3621436 290.744139,13.1073606 C291.45582,13.6570241 292.009644,14.3273669 292.40561,15.1175082 C292.801576,15.9085304 293,16.750643 293,17.6438462 C293,19.6945139 292.058148,21.4333533 290.176205,22.8594835 L290.176205,22.8594835 Z" id="Ke&amp;E--Logo"></path>
            </g>
        </g>
    </g>
</svg>