<?xml version="1.0" encoding="UTF-8"?>
<svg width="24px" height="29px" viewBox="0 0 24 29" version="1.1" xmlns="http://www.w3.org/2000/svg" xmlns:xlink="http://www.w3.org/1999/xlink">
    <title>87BF0448-5B4B-4574-B0D8-F1E60161AF15@3x</title>
    <g id="Page-1" stroke="none" stroke-width="1" fill="none" fill-rule="evenodd">
        <g id="3.-Configurations" transform="translate(-40.000000, -16.000000)" fill="#FFFFFF" fill-rule="nonzero">
            <g id="Header">
                <path d="M46.5975657,17.8371446 C46.3408474,18.524224 46.2119591,19.5907827 46.2119591,21.0357634 L46.2119591,39.5900779 C46.2119591,41.0350588 46.3408474,42.1047885 46.5975657,42.7992672 C46.8553408,43.4937458 47.296939,44.1174026 47.923417,44.667066 L40,44.667066 C40.6116878,44.1174026 41.0501169,43.4937458 41.3142308,42.7992672 C41.5794016,42.1047885 41.7114579,41.0350588 41.7114579,39.5900779 L41.7114579,21.0357634 C41.7114579,19.5907827 41.5794016,18.524224 41.3142308,17.8371446 C41.0501169,17.1500653 40.6116878,16.536979 40,16 L47.923417,16 C47.296939,16.536979 46.8553408,17.1500653 46.5975657,17.8371446 L46.5975657,17.8371446 Z M57.7632461,43.7907756 C56.7722902,43.2051726 55.61864,41.9631445 54.2980705,40.0646912 L46.9208406,29.6200275 L53.5754547,20.6647406 C54.0424091,20.0315704 54.3868139,19.5019909 54.6065554,19.0760016 C54.8273552,18.6500124 54.9382828,18.2906171 54.9382828,18.0020437 C54.9382828,17.6849301 54.8474282,17.3625314 54.6688871,17.0327332 C54.4914028,16.7029351 54.2220058,16.3583384 53.8649235,16 L61.0445974,16 L51.8016665,28.8166732 L60.2195052,40.6830627 C60.5480633,41.1640183 61.0160732,41.7305945 61.6267044,42.3753921 C62.2373356,43.0233607 63.0148861,43.7876044 63.960414,44.667066 L61.5569784,44.667066 C60.0177217,44.667066 58.7520882,44.3742645 57.7632461,43.7907756 L57.7632461,43.7907756 Z" id="Ke&amp;E--Logo"></path>
            </g>
        </g>
    </g>
</svg>